<svg width="606" height="587" viewBox="0 0 606 587" fill="none" xmlns="http://www.w3.org/2000/svg">
<path d="M303.036 570.65C470.108 569.519 605.439 550.626 605.306 528.45C605.172 506.274 469.625 489.214 302.554 490.344C135.482 491.475 0.151054 510.369 0.284384 532.544C0.417714 554.72 135.964 571.781 303.036 570.65Z" fill="#0084FF"/>
<path opacity="0.5" d="M303.036 570.65C470.108 569.519 605.439 550.626 605.306 528.45C605.172 506.274 469.625 489.214 302.554 490.344C135.482 491.475 0.151054 510.369 0.284384 532.544C0.417714 554.72 135.964 571.781 303.036 570.65Z" fill="white"/>
<path d="M32.0078 485.04L605.474 481.159" stroke="#263238" stroke-miterlimit="10"/>
<path d="M571.609 161.592C571.48 161.592 571.353 161.55 571.248 161.473C534.529 136.679 486.572 132.595 431.008 127.87C394.82 124.791 353.827 121.297 309.544 111.626C197.887 87.2583 135.001 4.87904 134.383 4.04215C134.279 3.90576 134.231 3.73449 134.247 3.56307C134.263 3.39165 134.343 3.23293 134.47 3.11909C134.612 3.01362 134.789 2.96818 134.963 2.9923C135.137 3.01641 135.296 3.1082 135.405 3.24842C136.037 4.07165 198.587 86.0734 309.803 110.336C354.046 119.994 394.998 123.474 431.147 126.553C486.844 131.304 534.962 135.346 571.949 160.383C572.096 160.483 572.199 160.639 572.235 160.817C572.271 160.994 572.238 161.178 572.141 161.331C572.077 161.411 571.996 161.477 571.904 161.522C571.812 161.567 571.711 161.591 571.609 161.592V161.592Z" fill="#0084FF"/>
<path d="M552.663 182.557C552.529 182.559 552.398 182.517 552.289 182.438C515.57 157.644 467.626 153.559 412.049 148.835C375.86 145.756 334.868 142.262 290.584 132.578C178.927 108.21 116.042 25.8305 115.423 24.9529C115.368 24.8827 115.328 24.802 115.305 24.7156C115.281 24.6292 115.275 24.5389 115.287 24.4501C115.299 24.3613 115.329 24.2759 115.374 24.199C115.419 24.1221 115.479 24.0552 115.55 24.0025C115.62 23.9485 115.7 23.9091 115.784 23.8864C115.869 23.8638 115.957 23.8583 116.044 23.8703C116.131 23.8823 116.214 23.9116 116.29 23.9564C116.366 24.0013 116.432 24.0609 116.485 24.1318C117.103 24.9551 179.667 106.943 290.87 131.219C335.113 140.877 376.065 144.358 412.214 147.437C467.911 152.187 516.028 156.23 553.016 181.266C553.163 181.367 553.266 181.523 553.302 181.7C553.338 181.877 553.304 182.062 553.208 182.214C553.153 182.313 553.074 182.397 552.979 182.457C552.883 182.516 552.775 182.551 552.663 182.557V182.557Z" fill="#0084FF"/>
<path d="M533.704 203.51C533.57 203.512 533.439 203.47 533.33 203.39C496.611 178.596 448.667 174.512 393.09 169.787C356.901 166.709 315.909 163.215 271.625 153.53C159.968 129.108 97.0826 46.783 96.4641 45.9461C96.4111 45.8752 96.3724 45.7944 96.3502 45.7083C96.3279 45.6221 96.3226 45.5324 96.3344 45.4441C96.3463 45.3559 96.3751 45.2708 96.4193 45.1939C96.4634 45.1169 96.522 45.0496 96.5918 44.9957C96.6615 44.9418 96.741 44.9023 96.8257 44.8796C96.9104 44.857 96.9986 44.8515 97.0854 44.8635C97.1721 44.8755 97.2557 44.9048 97.3313 44.9496C97.407 44.9945 97.4732 45.0541 97.5261 45.125C98.1446 45.9483 160.708 127.936 271.911 152.212C316.154 161.87 357.12 165.351 393.255 168.43C448.952 173.181 497.07 177.223 534.057 202.259C534.204 202.358 534.306 202.511 534.342 202.686C534.378 202.861 534.345 203.044 534.249 203.194C534.192 203.289 534.112 203.367 534.016 203.423C533.921 203.478 533.814 203.508 533.704 203.51V203.51Z" fill="#0084FF"/>
<path d="M514.745 224.448C514.612 224.455 514.481 224.417 514.371 224.342C477.652 199.548 429.708 195.464 374.131 190.739C337.956 187.647 296.95 184.167 252.666 174.482C141.009 150.114 78.1236 67.7211 77.5051 66.8978C77.3982 66.7546 77.3515 66.574 77.3754 66.3958C77.3994 66.2175 77.492 66.0562 77.6328 65.9473C77.7736 65.8384 77.9512 65.7909 78.1264 65.8151C78.3016 65.8394 78.4602 65.9335 78.5672 66.0767C79.1856 66.9 141.749 148.888 252.952 173.164C297.195 182.822 338.161 186.302 374.296 189.381C429.993 194.119 478.111 198.175 515.111 223.211C515.256 223.311 515.356 223.466 515.389 223.641C515.423 223.816 515.387 223.997 515.29 224.146C515.232 224.239 515.151 224.315 515.056 224.368C514.961 224.421 514.854 224.448 514.745 224.448Z" fill="#0084FF"/>
<path d="M180.869 42.8512C180.869 42.8512 174.84 45.0219 176.889 46.4188C178.938 47.8158 185.823 65.9336 184.436 68.3034C183.05 70.6733 178.616 62.9166 176.071 65.5248C173.526 68.1331 177.285 74.4835 181.23 73.982C185.174 73.4805 187.004 69.4663 186.04 64.4535C185.077 59.4407 181.842 51.6352 181.432 49.9287C181.021 48.2222 182.817 47.3283 185.6 48.9509C188.384 50.5735 193.248 47.7189 194.63 44.6438C196.012 41.5686 194.807 36.3946 194.807 36.3946C194.807 36.3946 195.743 38.9793 191.123 40.1908C186.502 41.4023 182.479 42.1349 180.869 42.8512Z" fill="#0084FF"/>
<path d="M154.527 124.613C154.527 124.613 148.511 126.784 150.547 128.181C152.583 129.578 159.48 147.695 158.107 150.065C156.734 152.435 152.273 144.678 149.742 147.287C147.21 149.895 150.956 156.245 154.887 155.744C158.819 155.242 160.662 151.228 159.711 146.215C158.761 141.202 155.459 133.275 154.982 131.623C154.506 129.972 156.3 129.023 159.151 130.646C162.001 132.268 166.799 129.414 168.167 126.339C169.536 123.263 168.345 118.089 168.345 118.089C168.345 118.089 169.294 120.674 164.66 121.886C160.026 123.097 156.149 123.897 154.527 124.613Z" fill="#0084FF"/>
<path d="M523.581 143.305C520.548 141.763 517.603 140.049 514.761 138.169C510.476 135.295 508.084 136.708 508.709 138.63C509.334 140.553 505.748 154.237 500.324 161.491C494.899 168.745 495.357 160.507 491.227 159.111C487.098 157.714 484.895 161.867 488.085 166.647C491.274 171.428 498.414 169.928 499.343 166.978C500.272 164.028 506.89 151.082 508.858 147.922C510.826 144.761 512.294 144.928 515.917 148.552C517.464 150.193 519.387 151.416 521.515 152.112C523.642 152.808 525.907 152.955 528.104 152.54C528.104 152.54 520.816 166.969 518.59 171.596C516.363 176.223 514.531 182.069 511.21 181.969C507.888 181.87 504.101 175.235 501.485 179.322C498.869 183.409 506.792 190.288 511.021 188.292C515.25 186.297 517.797 177.245 520.906 170.983C524.016 164.722 533.026 148.22 532.465 145.876C531.905 143.533 527.678 145.977 523.581 143.305Z" fill="#0084FF"/>
<path d="M438.235 171.543C436.091 170.452 434.008 169.238 431.998 167.909C428.958 165.881 427.311 166.883 427.719 168.237C428.127 169.59 425.625 179.28 421.788 184.406C417.951 189.533 418.276 183.711 415.349 182.727C412.423 181.743 410.88 184.684 413.141 188.06C415.402 191.436 420.437 190.371 421.144 188.29C423.116 183.674 425.361 179.183 427.865 174.842C429.266 172.635 430.307 172.723 432.869 175.283C433.966 176.438 435.328 177.299 436.832 177.788C438.336 178.277 439.936 178.38 441.489 178.087C441.489 178.087 436.335 188.283 434.754 191.535C433.173 194.788 431.891 198.948 429.464 198.883C427.036 198.818 424.447 194.088 422.597 197.03C420.748 199.973 426.352 204.792 429.304 203.375C432.256 201.957 434.098 195.569 436.285 191.118C438.473 186.667 444.858 175.026 444.461 173.427C444.065 171.829 441.167 173.436 438.235 171.543Z" fill="#0084FF"/>
<path d="M459.398 191.301C457.785 190.494 456.217 189.599 454.7 188.619C452.41 187.089 451.161 187.843 451.474 188.858C451.787 189.874 449.897 197.185 447 201.098C444.102 205.011 444.329 200.56 442.15 199.774C439.972 198.988 438.772 201.248 440.481 203.787C442.19 206.326 445.986 205.541 446.47 203.964C447.965 200.486 449.659 197.1 451.544 193.823C452.601 192.161 453.388 192.223 455.32 194.164C456.145 195.036 457.171 195.686 458.305 196.055C459.438 196.424 460.645 196.5 461.815 196.277C461.815 196.277 457.927 203.968 456.741 206.417C455.555 208.867 454.574 212.008 452.773 211.952C450.972 211.896 448.991 208.342 447.59 210.563C446.19 212.783 450.426 216.404 452.674 215.344C454.921 214.284 456.293 209.459 457.953 206.111C459.613 202.762 464.428 193.98 464.127 192.72C463.826 191.461 461.58 192.724 459.398 191.301Z" fill="#0084FF"/>
<path d="M150.234 42.8957C148.1 41.8047 146.027 40.596 144.024 39.275C140.984 37.2336 139.336 38.235 139.744 39.5888C140.153 40.9426 137.65 50.6319 133.813 55.7721C129.976 60.9123 130.301 55.0633 127.375 54.0793C124.448 53.0952 122.905 56.0494 125.166 59.412C127.427 62.7745 132.462 61.723 133.17 59.6427C135.142 55.0265 137.386 50.5355 139.891 46.1943C141.291 43.9872 142.332 44.0751 144.895 46.6352C145.979 47.7796 147.325 48.6343 148.812 49.1235C150.299 49.6127 151.882 49.7213 153.421 49.4399C153.421 49.4399 148.254 59.6356 146.686 62.8884C145.119 66.1412 143.823 70.301 141.396 70.2361C138.968 70.1711 136.379 65.4406 134.529 68.3833C132.68 71.326 138.284 76.1446 141.236 74.7274C144.188 73.3101 146.03 66.9218 148.217 62.471C150.405 58.0202 156.79 46.3648 156.393 44.7803C155.997 43.1958 153.126 44.7889 150.234 42.8957Z" fill="#0084FF"/>
<path d="M577.245 306.965C577.111 306.965 576.98 306.923 576.871 306.845C534.996 278.559 480.313 273.91 416.996 268.519C375.751 264.999 329.007 260.975 278.474 249.989C211.955 235.517 161.212 202.91 130.361 178.158C96.9243 151.32 78.9768 127.594 78.802 127.364C78.749 127.293 78.7103 127.212 78.6881 127.126C78.6658 127.04 78.6605 126.95 78.6723 126.862C78.6842 126.774 78.713 126.689 78.7571 126.612C78.8013 126.535 78.8599 126.468 78.9297 126.414C78.9994 126.36 79.0789 126.32 79.1636 126.298C79.2483 126.275 79.3365 126.269 79.4233 126.281C79.51 126.293 79.5936 126.323 79.6692 126.368C79.7449 126.412 79.811 126.472 79.864 126.543C80.0388 126.772 97.9056 150.391 131.222 177.121C161.965 201.779 212.508 234.211 278.746 248.672C329.199 259.685 375.903 263.655 417.108 267.161C480.612 272.578 535.441 277.213 577.611 305.714C577.758 305.815 577.861 305.971 577.897 306.148C577.933 306.325 577.899 306.51 577.803 306.662C577.74 306.754 577.657 306.829 577.56 306.882C577.463 306.934 577.355 306.963 577.245 306.965V306.965Z" fill="#0084FF"/>
<path d="M555.636 330.85C555.502 330.852 555.37 330.81 555.262 330.731C513.373 302.445 458.69 297.796 395.387 292.404C354.142 288.885 307.385 284.861 256.851 273.875C190.346 259.403 139.603 226.795 108.752 202.043C75.3153 175.206 57.3678 151.479 57.1797 151.25C57.076 151.105 57.0315 150.926 57.0553 150.749C57.0791 150.571 57.1694 150.41 57.3073 150.299C57.4481 150.191 57.6257 150.143 57.8009 150.167C57.9762 150.191 58.1347 150.286 58.2417 150.429C58.4164 150.658 76.2966 174.277 109.613 201.007C140.343 225.664 190.899 258.097 257.137 272.557C307.59 283.57 354.294 287.541 395.499 291.047C458.989 296.464 513.832 301.099 555.988 329.6C556.109 329.678 556.203 329.795 556.253 329.931C556.304 330.068 556.311 330.218 556.271 330.359C556.231 330.499 556.148 330.623 556.033 330.712C555.919 330.8 555.779 330.849 555.636 330.85V330.85Z" fill="#0084FF"/>
<path d="M534.029 354.737C533.895 354.737 533.765 354.695 533.655 354.617C491.767 326.277 437.084 321.682 373.754 316.291C332.508 312.772 285.765 308.747 235.232 297.762C168.713 283.29 117.97 250.682 87.1192 225.93C53.6154 199.093 35.7346 175.366 35.5598 175.137C35.5068 175.066 35.4681 174.985 35.4459 174.899C35.4236 174.813 35.4183 174.723 35.4301 174.635C35.442 174.546 35.4708 174.461 35.515 174.384C35.5591 174.307 35.6177 174.24 35.6875 174.186C35.7572 174.132 35.8367 174.093 35.9214 174.07C36.0061 174.047 36.0943 174.042 36.1811 174.054C36.2679 174.066 36.3514 174.095 36.4271 174.14C36.5027 174.185 36.5689 174.245 36.6218 174.315C36.7966 174.545 54.6635 198.164 87.9799 224.893C118.723 249.551 169.265 281.984 235.504 296.444C285.957 307.457 332.66 311.428 373.866 314.934C437.369 320.351 492.199 324.986 534.369 353.486C534.516 353.587 534.619 353.743 534.655 353.921C534.691 354.098 534.657 354.282 534.561 354.435C534.501 354.523 534.422 354.596 534.329 354.648C534.237 354.701 534.135 354.731 534.029 354.737V354.737Z" fill="#0084FF"/>
<path d="M512.407 378.623C512.273 378.625 512.142 378.583 512.033 378.503C470.145 350.217 415.462 345.568 352.159 340.177C310.913 336.658 264.156 332.633 213.623 321.648C147.118 307.176 96.3745 274.568 65.5239 249.816C32.0868 222.979 14.1392 199.252 13.9511 199.022C13.8475 198.878 13.803 198.698 13.8268 198.521C13.8506 198.344 13.9409 198.183 14.0788 198.072C14.2196 197.963 14.3972 197.915 14.5724 197.94C14.7476 197.964 14.9062 198.058 15.0132 198.201C15.1879 198.431 33.0681 222.05 66.3846 248.779C97.1145 273.437 147.67 305.869 213.908 320.33C264.362 331.343 311.065 335.314 352.271 338.819C415.761 344.237 470.604 348.871 512.773 377.372C512.919 377.475 513.019 377.632 513.052 377.809C513.086 377.986 513.05 378.17 512.952 378.321C512.892 378.412 512.811 378.487 512.716 378.54C512.621 378.593 512.515 378.621 512.407 378.623Z" fill="#0084FF"/>
<path d="M148.763 253.078C148.763 253.078 141.896 255.553 144.28 257.178C146.664 258.804 154.47 279.425 152.899 282.135C151.328 284.845 146.194 275.995 143.357 278.971C140.521 281.948 144.753 289.177 149.23 288.604C153.708 288.031 155.868 283.458 154.727 277.809C153.586 272.16 149.877 263.055 149.292 261.173C148.707 259.292 150.861 258.206 154.047 260.07C157.232 261.934 162.761 258.654 164.327 255.157C165.893 251.66 164.537 245.741 164.537 245.741C164.537 245.741 165.608 248.691 160.335 250.07C155.062 251.449 150.639 252.265 148.763 253.078Z" fill="#0084FF"/>
<path d="M454.076 253.441C454.076 253.441 447.223 255.915 449.606 257.541C451.99 259.166 459.796 279.787 458.225 282.484C456.654 285.181 451.52 276.343 448.684 279.32C445.847 282.296 450.079 289.539 454.556 288.966C459.034 288.393 461.194 283.807 460.04 278.171C458.886 272.536 455.19 263.418 454.605 261.536C454.02 259.654 456.174 258.568 459.36 260.432C462.545 262.296 468.074 259.016 469.64 255.519C471.206 252.023 469.85 246.103 469.85 246.103C469.85 246.103 470.921 249.054 465.648 250.432C460.375 251.811 455.925 252.628 454.076 253.441Z" fill="#0084FF"/>
<path d="M421.962 322.069C421.962 322.069 415.095 324.544 417.492 326.169C419.889 327.795 427.669 348.416 426.098 351.14C424.527 353.864 419.459 344.999 416.556 347.976C413.654 350.953 417.951 358.181 422.443 357.608C426.934 357.035 429.013 352.463 427.926 346.814C426.838 341.164 423.076 332.06 422.491 330.178C421.906 328.296 424.06 327.21 427.246 329.074C430.431 330.938 435.973 327.659 437.539 324.162C439.105 320.665 437.736 314.746 437.736 314.746C437.736 314.746 438.82 317.696 433.534 319.075C428.247 320.453 423.811 321.311 421.962 322.069Z" fill="#0084FF"/>
<path d="M113.602 212.606C110.15 210.864 106.794 208.93 103.551 206.814C98.6495 203.523 95.9918 205.128 96.6452 207.335C97.2987 209.542 93.2712 225.116 87.0927 233.405C80.9141 241.695 81.4176 232.264 76.7134 230.681C72.0093 229.099 69.4905 233.85 73.1375 239.279C76.7844 244.707 84.9098 243.011 85.9566 239.653C87.0033 236.295 94.57 221.539 96.8025 217.97C99.035 214.4 100.783 214.551 104.809 218.689C106.574 220.553 108.766 221.941 111.19 222.73C113.613 223.519 116.192 223.683 118.693 223.207C118.693 223.207 110.443 239.596 107.914 244.836C105.385 250.076 103.291 256.791 99.4893 256.681C95.6876 256.572 91.4406 248.949 88.4016 253.691C85.3626 258.432 94.4651 266.198 99.2794 263.927C104.094 261.656 107.019 251.34 110.551 244.194C114.082 237.048 124.372 218.244 123.716 215.617C123.06 212.99 118.261 215.654 113.602 212.606Z" fill="#0084FF"/>
<path d="M503.914 288.102C501.472 286.854 499.1 285.471 496.807 283.959C493.352 281.635 491.465 282.774 491.928 284.331C492.391 285.888 489.55 296.909 485.171 302.758C480.791 308.607 481.165 301.958 477.837 300.841C474.509 299.724 472.729 303.086 475.299 306.922C477.87 310.757 483.638 309.578 484.37 307.186C486.622 301.921 489.183 296.798 492.04 291.845C493.625 289.339 494.826 289.439 497.751 292.363C499 293.681 500.551 294.663 502.266 295.22C503.98 295.776 505.804 295.891 507.573 295.552C507.573 295.552 501.735 307.218 499.903 310.893C498.072 314.568 496.633 319.339 493.939 319.262C491.244 319.186 488.211 313.793 486.097 317.159C483.984 320.524 490.392 326.001 493.796 324.391C497.201 322.781 499.264 315.482 501.715 310.433C504.165 305.383 511.487 292.08 511.035 290.184C510.584 288.288 507.221 290.25 503.914 288.102Z" fill="#0084FF"/>
<path d="M528.001 310.622C526.159 309.684 524.372 308.641 522.647 307.497C520.036 305.751 518.641 306.615 518.968 307.78C519.295 308.944 517.171 317.288 513.877 321.678C510.582 326.069 510.845 321.075 508.346 320.224C505.847 319.372 504.489 321.918 506.44 324.808C508.391 327.698 512.707 326.8 513.27 325.02C514.97 321.049 516.902 317.186 519.055 313.45C520.244 311.556 521.151 311.631 523.352 313.841C524.294 314.834 525.463 315.573 526.755 315.993C528.047 316.412 529.422 316.499 530.755 316.246C530.755 316.246 526.327 325.013 524.97 327.803C523.613 330.593 522.514 334.182 520.486 334.114C518.459 334.046 516.167 329.992 514.582 332.526C512.997 335.06 517.81 339.192 520.376 337.913C522.942 336.634 524.497 331.197 526.381 327.386C528.265 323.575 533.753 313.554 533.411 312.132C533.069 310.709 530.491 312.246 528.001 310.622Z" fill="#0084FF"/>
<path d="M96.8074 171.724C94.3634 170.475 91.9907 169.087 89.7004 167.567C86.2322 165.244 84.3585 166.382 84.808 167.939C85.2575 169.496 82.4296 180.517 78.0636 186.38C73.6977 192.243 74.0577 185.566 70.7167 184.449C67.3757 183.332 65.6088 186.695 68.1926 190.53C70.7763 194.365 76.5175 193.187 77.2633 190.794C79.5068 185.529 82.0683 180.411 84.9333 175.467C86.5186 172.947 87.7061 173.047 90.6312 175.971C91.8796 177.29 93.4309 178.271 95.1454 178.828C96.8599 179.385 98.6838 179.499 100.453 179.161C100.453 179.161 94.5746 190.786 92.7832 194.501C90.9917 198.217 89.513 202.947 86.8185 202.871C84.124 202.794 81.1041 197.402 78.9904 200.767C76.8767 204.132 83.2714 209.61 86.676 208C90.0805 206.389 92.144 199.104 94.5942 194.041C97.0445 188.978 104.367 175.688 103.915 173.806C103.464 171.923 100.101 173.872 96.8074 171.724Z" fill="#0084FF"/>
<path d="M85.0598 436.333C85.0598 436.333 49.3255 373.467 57.3776 357.365C65.4297 341.262 86.4482 370.001 86.4482 370.001C86.4482 370.001 67.9702 311.292 77.7782 285.559C87.5863 259.827 104.958 285.375 105.974 303.546C106.99 321.718 102.642 352.785 102.642 352.785C102.642 352.785 109.512 288.546 126.831 307.692C144.151 326.838 105.595 391.292 105.595 391.292C105.595 391.292 131.778 376.192 130.96 395.407C130.142 414.621 99.5046 432.03 99.5046 432.03" fill="#0084FF"/>
<path d="M85.2573 424.57C85.2573 424.57 52.3832 393.768 68.2233 379.756C84.0634 365.744 92.6254 394.513 92.6254 394.513C92.6254 394.513 74.4878 305.902 102.928 302.495C131.369 299.087 110.94 379.467 110.94 379.467C110.94 379.467 135.047 345.077 133.573 372.897C132.1 400.716 96.1666 424.496 96.1666 424.496" stroke="#263238" stroke-miterlimit="10"/>
<path d="M101.294 418.818L79.0488 394.619" stroke="#263238" stroke-miterlimit="10"/>
<path d="M96.6877 420.722L102.248 349.505" stroke="#263238" stroke-miterlimit="10"/>
<path d="M95.7386 415.573L115.383 388.757" stroke="#263238" stroke-miterlimit="10"/>
<path d="M124.344 410.414L63.2363 410.828L69.7852 484.106L118.677 483.775L124.344 410.414Z" fill="#263238"/>
<path d="M232.421 323.188C232.421 323.188 239.524 490.961 233.617 522.161C227.709 553.362 201.651 555.885 141.862 551.623C82.0735 547.361 -6.11023 538.557 33.6279 522.009C73.3659 505.461 191.35 508.475 181.448 518.675C171.547 528.876 116.382 526.129 100.261 520.012C84.1396 513.894 164.436 493.084 207.373 498.246C250.309 503.409 274.205 522.728 377.739 549.294C481.274 575.86 556.202 544.966 553.782 523.956C551.362 502.945 486.248 502.532 462.496 502.692" stroke="#263238" stroke-width="2" stroke-linecap="round" stroke-linejoin="round"/>
<path d="M351.688 417.667L384.185 407.978L485.079 414.594L466.442 424.84L351.688 417.667Z" fill="#666666" stroke="#263238" stroke-linecap="round" stroke-linejoin="round"/>
<path d="M485.079 414.593L484.934 523.73L465.348 540.209L466.442 424.839L485.079 414.593Z" fill="#2B2B2B" stroke="#263238" stroke-linecap="round" stroke-linejoin="round"/>
<path d="M356.059 523.733L357.614 527.291L363.314 528.134L366.509 524.992L356.059 523.733Z" fill="#263238" stroke="#263238" stroke-linecap="round" stroke-linejoin="round"/>
<path d="M451.957 538.007L453.499 541.565L459.199 542.408L462.394 539.266L451.957 538.007Z" fill="#263238" stroke="#263238" stroke-linecap="round" stroke-linejoin="round"/>
<path d="M351.687 417.667L350.758 522.631L465.348 540.209L466.442 424.84L351.687 417.667Z" fill="#404040" stroke="#263238" stroke-linecap="round" stroke-linejoin="round"/>
<path d="M360.856 427.52L360.078 515.608L456.22 530.354L457.145 433.543L360.856 427.52Z" fill="black" stroke="#263238" stroke-linecap="round" stroke-linejoin="round"/>
<path d="M365.643 513.671L456.245 527.573L457.146 433.543L366.394 427.863L365.643 513.671Z" fill="#263238" stroke="#263238" stroke-linecap="round" stroke-linejoin="round"/>
<path d="M366.253 444.604L456.965 452.482L457.145 433.543L366.392 427.863L366.253 444.604Z" fill="#0084FF" stroke="#263238" stroke-linecap="round" stroke-linejoin="round"/>
<path d="M381.738 436.198C381.743 437.07 381.494 437.924 381.022 438.652C380.551 439.38 379.877 439.95 379.087 440.289C378.297 440.628 377.426 440.721 376.584 440.557C375.742 440.392 374.968 439.978 374.358 439.365C373.748 438.753 373.33 437.97 373.158 437.116C372.986 436.262 373.066 435.375 373.389 434.567C373.712 433.759 374.264 433.067 374.974 432.578C375.684 432.088 376.52 431.824 377.377 431.818C377.947 431.813 378.512 431.922 379.04 432.139C379.568 432.356 380.049 432.678 380.454 433.085C380.859 433.492 381.181 433.976 381.402 434.511C381.622 435.045 381.736 435.618 381.738 436.198V436.198Z" fill="#263238" stroke="#263238" stroke-linecap="round" stroke-linejoin="round"/>
<path d="M393.549 441.788C395.943 441.772 397.872 439.785 397.857 437.35C397.843 434.915 395.89 432.954 393.496 432.971C391.103 432.987 389.174 434.974 389.189 437.409C389.203 439.844 391.156 441.804 393.549 441.788Z" fill="#263238" stroke="#263238" stroke-linecap="round" stroke-linejoin="round"/>
<path d="M413.963 438.503C413.968 439.375 413.719 440.229 413.247 440.957C412.775 441.685 412.102 442.255 411.312 442.594C410.522 442.933 409.651 443.026 408.809 442.862C407.967 442.697 407.192 442.283 406.582 441.67C405.972 441.058 405.555 440.275 405.383 439.421C405.21 438.567 405.291 437.68 405.614 436.872C405.937 436.064 406.489 435.372 407.198 434.883C407.908 434.394 408.745 434.129 409.602 434.124C410.172 434.118 410.737 434.227 411.265 434.444C411.793 434.662 412.273 434.983 412.678 435.39C413.084 435.797 413.406 436.282 413.626 436.816C413.847 437.35 413.961 437.923 413.963 438.503V438.503Z" fill="#263238" stroke="#263238" stroke-linecap="round" stroke-linejoin="round"/>
<path d="M430.082 439.655C430.087 440.527 429.838 441.381 429.366 442.109C428.894 442.838 428.221 443.407 427.431 443.746C426.641 444.085 425.77 444.179 424.928 444.014C424.086 443.85 423.311 443.435 422.701 442.823C422.092 442.21 421.674 441.427 421.502 440.573C421.329 439.719 421.41 438.832 421.733 438.025C422.056 437.217 422.608 436.524 423.317 436.035C424.027 435.546 424.864 435.282 425.721 435.276C426.291 435.27 426.856 435.379 427.384 435.597C427.912 435.814 428.392 436.135 428.798 436.542C429.203 436.949 429.525 437.434 429.745 437.968C429.966 438.502 430.08 439.076 430.082 439.655V439.655Z" fill="#263238" stroke="#263238" stroke-linecap="round" stroke-linejoin="round"/>
<path d="M396.813 414.498L396.797 411.785L401.79 410.449L438.294 412.807L437.883 415.414L434.372 417.093L396.813 414.498Z" fill="#263238"/>
<path d="M356.901 384.341C356.901 384.341 349.196 398.271 350.19 401.737C351.185 405.203 367.287 408.065 374.625 412.967C381.963 417.869 388.787 419.315 393.165 417.793C397.544 416.271 401.441 416.746 399.461 411.306C397.482 405.866 391.633 406.91 387.244 404.457C382.854 402.004 370.559 388.956 369.577 387.47C368.594 385.985 356.901 384.341 356.901 384.341Z" fill="#0084FF" stroke="#263238" stroke-linecap="round" stroke-linejoin="round"/>
<path d="M371.194 389.725C371.194 389.725 368.756 394.76 367.119 395.178" stroke="#263238" stroke-linecap="round" stroke-linejoin="round"/>
<path d="M374.088 392.635C374.088 392.635 374.118 397.641 371.659 398.919" stroke="#263238" stroke-linecap="round" stroke-linejoin="round"/>
<path d="M379.043 398.027C379.043 398.027 379.877 399.27 377.422 401.376" stroke="#263238" stroke-linecap="round" stroke-linejoin="round"/>
<path d="M383.601 401.755C383.601 401.755 383.19 402.178 380.736 404.284" stroke="#263238" stroke-linecap="round" stroke-linejoin="round"/>
<path d="M388.649 405.099C387.911 405.585 387.271 406.211 386.766 406.943C385.431 408.72 384.451 410.745 383.881 412.904C378.438 408.897 372.522 405.601 366.271 403.093C361.217 400.995 355.99 399.36 350.65 398.207C350.219 399.324 350.062 400.531 350.191 401.724C351.186 405.176 367.287 408.052 374.626 412.953C381.964 417.855 388.788 419.301 393.166 417.779C397.545 416.257 401.442 416.733 399.462 411.293C397.686 406.435 392.806 406.739 388.649 405.099Z" fill="white" stroke="#263238" stroke-linecap="round" stroke-linejoin="round"/>
<path d="M210.17 182.867L203.544 216.555L207.222 215.987L215.961 185.5L210.17 182.867Z" fill="#263238" stroke="#263238" stroke-linecap="round" stroke-linejoin="round"/>
<path d="M267.443 527.277C268.222 530.165 269.294 532.963 270.641 535.626C272.244 538.192 295.23 550.381 293.984 556.169C293.518 558.41 291.79 561.691 281.298 562.414C270.807 563.136 260.689 555.214 255.792 552.548C248.152 548.407 246.846 546.463 247.728 542.252C248.61 538.04 252.392 523.771 252.392 523.771C257.284 525.438 262.325 526.612 267.443 527.277Z" fill="#0084FF" stroke="#263238" stroke-linecap="round" stroke-linejoin="round"/>
<path d="M258.731 535.842C260.154 534.667 261.795 533.796 263.557 533.283C265.319 532.77 267.165 532.625 268.983 532.856" stroke="#263238" stroke-linecap="round" stroke-linejoin="round"/>
<path d="M261.615 538.332C261.615 538.332 266.527 534.663 270.641 535.626" stroke="#263238" stroke-linecap="round" stroke-linejoin="round"/>
<path d="M265.742 541.656C265.742 541.656 271.881 537.843 275.588 539.907" stroke="#263238" stroke-linecap="round" stroke-linejoin="round"/>
<path d="M270.696 544.959C270.696 544.959 276.012 541.993 280.128 543.227" stroke="#263238" stroke-linecap="round" stroke-linejoin="round"/>
<path d="M255.998 535.875C256.013 538.29 254.891 540.264 253.49 540.274C252.09 540.283 250.931 538.324 250.917 535.909C250.902 533.495 252.024 531.534 253.438 531.524C254.852 531.515 255.984 533.474 255.998 535.875Z" fill="white" stroke="#263238" stroke-linecap="round" stroke-linejoin="round"/>
<path d="M288.952 548.919C286.124 548.938 281.86 549.496 279.636 552.387C276.156 556.941 275.857 558.245 275.857 558.245C270.196 554.214 264.22 550.662 257.989 547.622C254.209 545.925 250.876 543.345 248.261 540.091C248.052 540.92 247.883 541.64 247.767 542.197C246.845 546.409 248.15 548.354 255.831 552.493C260.728 555.173 270.845 563.068 281.337 562.359C291.829 561.651 293.556 558.356 294.023 556.115C294.398 554.254 292.169 551.637 288.952 548.919Z" fill="white" stroke="#263238" stroke-linecap="round" stroke-linejoin="round"/>
<path d="M279.83 79.0513C279.83 79.0513 302.786 81.8125 306.571 90.1162C310.355 98.42 325.871 165.818 327.12 169.553C328.37 173.289 359.124 179.755 377.568 179.63C396.012 179.506 388.637 181.645 382.938 185.427C377.239 189.21 360.047 193.505 342.444 196.12C324.842 198.735 312.962 197.147 307.594 189.274C302.225 181.402 294.139 143.12 288.663 117.382C283.187 91.6446 279.83 79.0513 279.83 79.0513Z" fill="white" stroke="#263238" stroke-linecap="round" stroke-linejoin="round"/>
<path d="M306.522 90.1309C302.791 81.8268 279.781 79.0659 279.781 79.0659C279.781 79.0659 283.124 91.5373 288.614 117.343C290.398 125.769 292.471 135.535 294.622 145.139C296.341 144.842 298.339 144.449 300.643 143.918C306.331 142.618 313.626 138.282 318.528 135.033C313.864 115.652 308.509 94.5399 306.522 90.1309Z" fill="#0084FF" stroke="#263238" stroke-linecap="round" stroke-linejoin="round"/>
<path d="M292.944 137.336C293.959 142.01 295.014 146.737 296.082 151.342C304.798 149.282 312.866 145.03 319.548 138.974C318.591 135.06 317.606 131.011 316.608 127.002C309.632 132.298 301.522 135.839 292.944 137.336V137.336Z" fill="#263238" stroke="#263238" stroke-linecap="round" stroke-linejoin="round"/>
<path d="M407.339 164.127C407.339 164.127 411.603 154.602 412.066 154.042C412.529 153.483 423.42 152.609 420.576 156.495C420.206 156.985 413.397 157.981 413.397 157.981L411.793 161.885L407.339 164.127Z" fill="white" stroke="#263238" stroke-linecap="round" stroke-linejoin="round"/>
<path d="M416.469 256.447C402.063 242.789 349.609 240.621 328.326 236.627C323.172 235.658 319.072 234.777 315.787 233.999C309.368 204.537 293.636 147.871 290.745 117.3C290.033 109.749 286.927 74.5671 273.171 78.0788C246.538 84.8926 199.942 98.7465 198.508 133.091C197.341 160.759 208.813 190.092 213.963 216.958C216.524 230.371 218.913 241.627 221.33 251.026L221.13 251.027C221.13 251.027 244.279 354.621 244.381 371.699C244.484 388.778 241.259 397.97 240.595 422.976C239.932 447.982 251.132 527.36 253.596 528.971C256.06 530.583 261.381 530.587 263.843 529.729C266.306 528.872 266.713 530.131 267.509 527.209C268.305 524.287 277.818 467.233 280.296 406.808C282.773 346.383 286.971 301.412 304.5 288.799C322.029 276.187 393.322 277.346 393.844 286.526C394.366 295.707 354.144 382.691 355.808 384.348C357.472 386.005 366.502 388.44 368.524 387.599C370.547 386.758 408.681 323.162 420.847 301.415C433.013 279.668 430.888 270.092 416.469 256.447Z" fill="#0084FF" stroke="#263238" stroke-linecap="round" stroke-linejoin="round"/>
<path d="M273.104 78.1474C258.562 81.8679 238.072 87.7041 222.235 97.8092C228.666 107.167 246.094 131.033 258.569 134.028C273.261 137.55 279.286 94.927 277.841 78.5359C276.358 77.836 274.678 77.6982 273.104 78.1474V78.1474Z" fill="#263238" stroke="#263238" stroke-linecap="round" stroke-linejoin="round"/>
<path d="M273.586 71.3621C273.586 71.3621 283.475 145.499 309.952 183.711L317.319 189.006C318.653 188.997 293.586 132.435 281.935 71.2243L273.586 71.3621Z" fill="#263238" stroke="#263238" stroke-linecap="round" stroke-linejoin="round"/>
<path d="M271.992 87.8682C270.459 85.8302 268.943 84.2532 267.571 82.3633C263.415 76.5853 264.928 64.2032 269.596 59.8577C269.196 58.973 268.718 58.1271 268.167 57.3306C262.788 49.933 241.766 53.8737 236.415 60.0145C237.804 62.4547 238.997 65.0053 239.982 67.6414C241.34 71.7833 242.502 76.442 241.661 80.8294C240.589 86.5071 236.08 88.5996 232.194 92.1665C236.694 99.8549 249.215 117.189 254.726 119.81C261.267 122.994 270.026 95.8039 271.992 87.8682Z" fill="white" stroke="#263238" stroke-linecap="round" stroke-linejoin="round"/>
<path d="M265.786 65.73C266.566 63.562 267.944 61.6686 269.755 60.2769C275.893 56.3149 290.905 51.1126 294.715 43.6393C295.076 39.6263 294.635 35.5808 293.418 31.7468C292.201 27.9128 290.232 24.3696 287.632 21.331C278.711 10.4167 261.698 4.67149 248.042 9.29484C230.101 15.4123 226.268 32.3411 230.025 44.8774C232.134 51.9173 235.764 59.0147 238.143 64.14C242.03 65.1447 248.167 65.5915 255.198 65.8831C258.727 66.029 262.262 65.9779 265.786 65.73V65.73Z" fill="#263238" stroke="#263238" stroke-linecap="round" stroke-linejoin="round"/>
<path d="M253.056 57.9347C253.056 57.9347 250.425 43.9527 245.09 43.9888C239.755 44.0249 237.353 57.0507 239.873 63.5451C242.392 70.0396 247.005 67.4716 247.005 67.4716C248.787 71.6626 250.908 75.6957 253.346 79.5293C256.224 83.4845 265.776 92.848 276.699 92.7741C281.313 92.7429 287.571 68.8385 288.941 59.4282C290.312 50.018 290.275 46.057 287.749 38.4774C285.222 30.8977 274.928 35.6746 266.085 42.2324C260.627 46.3937 256.172 51.7634 253.056 57.9347V57.9347Z" fill="white" stroke="#263238" stroke-linecap="round" stroke-linejoin="round"/>
<path d="M259.354 40.7728C259.354 40.7728 270.657 37.3591 280.742 48.876C290.545 60.0827 301.936 53.5212 305.924 46.9963C312.211 36.7252 319.681 43.6474 319.606 31.1811C319.531 18.7147 311.31 17.8208 302.896 20.211C294.481 22.6013 298.993 7.77057 287.488 6.28838C275.982 4.80619 272.97 11.8129 269.917 14.2076" fill="#263238"/>
<path d="M259.354 40.7728C259.354 40.7728 270.657 37.3591 280.742 48.876C290.545 60.0827 301.936 53.5212 305.924 46.9963C312.211 36.7252 319.681 43.6474 319.606 31.1811C319.531 18.7147 311.31 17.8208 302.896 20.211C294.481 22.6013 298.993 7.77057 287.488 6.28838C275.982 4.80619 272.97 11.8129 269.917 14.2076" stroke="#263238" stroke-linecap="round" stroke-linejoin="round"/>
<path d="M288.542 52.3367C288.542 52.3367 285.556 52.6011 285.317 54.8953C285.077 57.1895 286.621 65.522 286.153 69.8119C285.685 74.1018 280.198 73.1486 277.437 70.8883" fill="white"/>
<path d="M288.542 52.3367C288.542 52.3367 285.556 52.6011 285.317 54.8953C285.077 57.1895 286.621 65.522 286.153 69.8119C285.685 74.1018 280.198 73.1486 277.437 70.8883" stroke="#263238" stroke-linecap="round" stroke-linejoin="round"/>
<path d="M276.127 50.6428C276.127 50.6428 269.428 45.6282 265.461 51.217Z" fill="white"/>
<path d="M276.127 50.6428C276.127 50.6428 269.428 45.6282 265.461 51.217" stroke="#263238" stroke-linecap="round" stroke-linejoin="round"/>
<path d="M275.099 54.7068L274.878 58.0047C274.878 58.0047 269.409 60.063 265.909 56.7902" fill="white"/>
<path d="M275.099 54.7068L274.878 58.0047C274.878 58.0047 269.409 60.063 265.909 56.7902" stroke="#263238" stroke-linecap="round" stroke-linejoin="round"/>
<path d="M266.274 277.46C254.425 282.877 241.594 285.713 228.607 285.786C235.373 317.565 244.251 361.2 244.314 371.767C244.417 388.846 241.191 398.038 240.528 423.044C239.865 448.05 251.065 527.429 253.529 529.04C255.993 530.651 261.314 530.656 263.776 529.798C266.238 528.94 266.646 530.199 267.442 527.277C268.238 524.355 277.751 467.301 280.229 406.877C282.706 346.452 286.904 301.48 304.433 288.868C321.962 276.255 377.08 288.932 377.548 298.086C378.016 307.24 354.143 382.691 355.807 384.348C357.471 386.005 366.501 388.44 368.524 387.599C370.546 386.758 408.681 323.162 420.847 301.415C433.013 279.668 430.888 270.146 416.468 256.447C402.049 242.749 349.608 240.621 328.325 236.627C323.171 235.659 319.071 234.777 315.786 233.999C312.254 238.812 297.729 263.084 266.274 277.46Z" fill="#263238"/>
<path d="M377.555 298.087C377.555 298.087 399.963 311.732 409.944 312.586" stroke="#6B6B6B" stroke-linecap="round" stroke-linejoin="round"/>
<path d="M363.6 290.774C363.6 290.774 381.84 310.009 395.48 318.219" stroke="#6B6B6B" stroke-linecap="round" stroke-linejoin="round"/>
<path d="M366.408 305.501C366.408 305.501 380.131 327.534 391.914 332.989" stroke="#6B6B6B" stroke-linecap="round" stroke-linejoin="round"/>
<path d="M308.309 287.472C308.309 287.472 317.303 277.264 353.553 270.575" stroke="#6B6B6B" stroke-linecap="round" stroke-linejoin="round"/>
<path d="M338.159 278.968C338.159 278.968 361.694 276.096 374.366 274.111" stroke="#6B6B6B" stroke-linecap="round" stroke-linejoin="round"/>
<path d="M283.504 389.939C283.504 389.939 271.098 436.146 262.209 463.812" stroke="#6B6B6B" stroke-linecap="round" stroke-linejoin="round"/>
<path d="M277.488 436.062C273.135 456.996 264.632 476.81 252.498 494.293" stroke="#6B6B6B" stroke-linecap="round" stroke-linejoin="round"/>
<path d="M266.274 277.46C254.425 282.877 241.594 285.713 228.607 285.786C235.373 317.565 244.251 361.2 244.314 371.767C244.417 388.846 241.191 398.038 240.528 423.044C239.865 448.05 251.065 527.429 253.529 529.04C255.993 530.651 261.314 530.656 263.776 529.798C266.238 528.94 266.646 530.199 267.442 527.277C268.238 524.355 277.751 467.301 280.229 406.877C282.706 346.452 286.904 301.48 304.433 288.868C321.962 276.255 377.08 288.932 377.548 298.086C378.016 307.24 354.143 382.691 355.807 384.348C357.471 386.005 366.501 388.44 368.524 387.599C370.546 386.758 408.681 323.162 420.847 301.415C433.013 279.668 430.888 270.146 416.468 256.447C402.049 242.749 349.608 240.621 328.325 236.627C323.171 235.659 319.071 234.777 315.786 233.999C312.254 238.812 297.729 263.084 266.274 277.46Z" stroke="#263238" stroke-linecap="round" stroke-linejoin="round"/>
<path d="M224.878 315.521L227.38 321.269C227.648 321.877 228.079 322.395 228.624 322.763C229.169 323.131 229.806 323.335 230.46 323.351L235.129 323.442C235.833 323.458 236.526 323.255 237.114 322.861C237.703 322.467 238.159 321.9 238.423 321.235L241.05 314.516L224.878 315.521Z" fill="white" stroke="#263238" stroke-linecap="round" stroke-linejoin="round"/>
<path d="M327.261 208.229C328.299 205.698 323.931 197.873 322.838 195.792C313.395 177.922 287.013 177.68 275.491 193.399C271.298 199.125 269.074 206.479 263.593 210.884C251.833 220.311 234.894 209.03 222.229 207.664C194.643 204.69 175.908 231.799 176.796 257.473C177.62 281.384 192.696 304.479 214.069 314.481C215.139 314.99 216.235 315.457 217.331 315.884C242.357 325.739 266.196 313.396 279.868 291.395C283.963 284.788 287.482 277.846 291.63 271.279C293.823 267.818 296.618 264.557 300.356 262.999C307.779 259.883 317.302 262.138 325.264 259.792C330.775 258.167 338.907 255.236 341.499 249.399C344.354 242.936 340.646 242.771 335.34 243.133C330.034 243.494 323.949 238.489 323.318 228.929C322.687 219.37 327.261 208.229 327.261 208.229Z" fill="#757575" stroke="#263238" stroke-linecap="round" stroke-linejoin="round"/>
<path d="M323.427 209.706C324.466 207.19 320.097 199.351 319.018 197.283C309.641 179.413 283.193 179.171 271.657 194.89C267.477 200.616 265.254 207.97 259.759 212.376C247.999 221.788 231.073 210.521 218.395 209.156C190.81 206.181 172.088 233.29 172.975 258.964C173.799 282.875 188.876 305.97 210.235 315.973C211.318 316.481 212.401 316.948 213.511 317.375C238.537 327.23 262.376 314.874 276.047 292.873C280.129 286.279 283.662 279.337 287.81 272.77C289.99 269.31 292.797 266.048 296.536 264.477C303.946 261.374 313.482 263.629 321.43 261.283C326.955 259.658 335.086 256.727 337.665 250.89C340.534 244.427 336.825 244.262 331.506 244.624C326.187 244.986 320.115 239.98 319.497 230.421C318.88 220.861 323.427 209.72 323.427 209.706Z" fill="#757575"/>
<path opacity="0.19" d="M335.303 243.227C329.97 243.603 323.912 238.584 323.281 229.024C322.65 219.464 327.264 208.296 327.264 208.296C328.302 205.766 323.934 197.941 322.841 195.859C315.245 181.368 296.423 178.47 283.426 186.291L234.026 319.392C252.62 319.755 269.29 308.504 279.831 291.49C283.926 284.882 287.445 277.94 291.593 271.373C293.773 267.913 296.581 264.652 300.319 263.094C307.743 259.978 317.265 262.233 325.227 259.886C330.739 258.262 338.87 255.331 341.462 249.494C344.317 242.963 340.608 242.798 335.303 243.227Z" fill="white"/>
<path opacity="0.19" d="M237.254 195.57C239.643 194.143 242.219 193.066 244.903 192.371C235.81 183.832 221.214 183.035 210.543 189.429L161.13 322.531C173.828 322.77 185.627 317.603 195.19 308.884L237.254 195.57Z" fill="white"/>
<path d="M323.427 209.706C324.466 207.19 320.097 199.351 319.018 197.283C309.641 179.413 283.193 179.171 271.657 194.89C267.477 200.616 265.254 207.97 259.759 212.376C247.999 221.788 231.073 210.521 218.395 209.156C190.81 206.181 172.088 233.29 172.975 258.964C173.799 282.875 188.876 305.97 210.235 315.973C211.318 316.481 212.401 316.948 213.511 317.375C238.537 327.23 262.376 314.874 276.047 292.873C280.129 286.279 283.662 279.337 287.81 272.77C289.99 269.31 292.797 266.048 296.536 264.477C303.946 261.374 313.482 263.629 321.43 261.283C326.955 259.658 335.086 256.727 337.665 250.89C340.534 244.427 336.825 244.262 331.506 244.624C326.187 244.986 320.115 239.98 319.497 230.421C318.88 220.861 323.427 209.72 323.427 209.706Z" stroke="#263238" stroke-linecap="round" stroke-linejoin="round"/>
<path d="M302.455 216.984L308.612 231.716L456.581 153.281L451.325 141.949L302.455 216.984Z" fill="#263238" stroke="#263238" stroke-linecap="round" stroke-linejoin="round"/>
<path d="M321.159 220.71C321.159 220.71 292.985 266.128 283.223 270.712C273.461 275.295 266.731 260.609 272.66 250.747C278.589 240.885 321.159 220.71 321.159 220.71Z" fill="white" stroke="#263238" stroke-linecap="round" stroke-linejoin="round"/>
<path d="M315.129 231.879L305.376 211.759C304.643 210.248 302.844 209.627 301.357 210.373L293.438 214.348C291.952 215.094 291.341 216.925 292.073 218.436L301.827 238.556C302.559 240.067 304.358 240.688 305.845 239.942L313.764 235.967C315.25 235.221 315.861 233.391 315.129 231.879Z" fill="white" stroke="#263238" stroke-linecap="round" stroke-linejoin="round"/>
<path d="M281.455 251.82L272.3 231.412C271.612 229.878 269.832 229.203 268.325 229.903L260.292 233.635C258.784 234.335 258.119 236.146 258.807 237.679L267.962 258.088C268.65 259.621 270.43 260.296 271.937 259.596L279.97 255.865C281.478 255.164 282.143 253.353 281.455 251.82Z" fill="white" stroke="#263238" stroke-linecap="round" stroke-linejoin="round"/>
<path d="M235.731 277.395L221.722 247.808C221.617 247.588 221.557 247.348 221.545 247.104C221.533 246.859 221.569 246.614 221.653 246.384C221.736 246.155 221.864 245.944 222.029 245.766C222.195 245.588 222.394 245.445 222.614 245.347V245.347C222.827 245.239 223.059 245.176 223.296 245.16C223.533 245.144 223.771 245.176 223.996 245.254C224.221 245.331 224.428 245.454 224.606 245.614C224.784 245.774 224.93 245.968 225.034 246.185L239.042 275.772C239.246 276.21 239.273 276.712 239.116 277.171C238.959 277.629 238.631 278.005 238.203 278.22V278.22C237.988 278.336 237.753 278.407 237.511 278.429C237.268 278.45 237.024 278.422 236.793 278.345C236.562 278.268 236.349 278.144 236.166 277.981C235.984 277.817 235.836 277.618 235.731 277.395V277.395Z" fill="white" stroke="#263238" stroke-linecap="round" stroke-linejoin="round"/>
<path d="M222.077 248.986L179.123 285.226C178.474 285.77 178.028 286.524 177.858 287.361C177.688 288.199 177.806 289.071 178.191 289.831L181.08 295.59C181.503 296.435 182.224 297.086 183.099 297.412C183.974 297.738 184.938 297.716 185.798 297.349L235.431 276.204L233.544 272.852L201.252 278.985L224.106 253.72L222.077 248.986Z" fill="white" stroke="#263238" stroke-linecap="round" stroke-linejoin="round"/>
<path d="M271.438 262.245C270.951 261.829 270.322 261.625 269.688 261.677C269.054 261.73 268.466 262.035 268.052 262.526C263.041 267.565 257.075 271.515 250.517 274.135C246.266 275.93 241.91 277.455 237.474 278.7C236.355 278.992 235.237 279.284 234.118 279.495C231.453 280.002 227.112 281.103 227.48 284.641C227.557 285.528 227.948 286.356 228.581 286.971C229.215 287.585 230.047 287.943 230.921 287.979C231.796 288.015 232.654 287.725 233.334 287.164C234.014 286.603 234.47 285.81 234.617 284.932C240.774 283.627 246.786 281.691 252.561 279.154C259.905 276.254 266.478 271.642 271.752 265.689C271.954 265.442 272.106 265.157 272.2 264.85C272.293 264.543 272.327 264.22 272.297 263.9C272.268 263.58 272.177 263.269 272.03 262.985C271.882 262.701 271.681 262.45 271.438 262.245V262.245Z" fill="white" stroke="#263238" stroke-linecap="round" stroke-linejoin="round"/>
<path d="M220.699 296.91C220.631 296.186 220.354 295.499 219.902 294.936C219.451 294.373 218.845 293.959 218.162 293.746C217.478 293.533 216.748 293.531 216.064 293.74C215.379 293.949 214.77 294.36 214.315 294.92C213.86 295.481 213.578 296.166 213.506 296.89C213.433 297.613 213.573 298.342 213.908 298.984C214.242 299.626 214.757 300.153 215.386 300.497C216.015 300.842 216.731 300.989 217.442 300.92C217.915 300.874 218.374 300.734 218.794 300.508C219.213 300.281 219.585 299.973 219.887 299.601C220.19 299.228 220.417 298.799 220.556 298.337C220.696 297.876 220.744 297.391 220.699 296.91V296.91Z" fill="white" stroke="#263238" stroke-linecap="round" stroke-linejoin="round"/>
<path d="M247.742 300.593C247.674 299.869 247.396 299.182 246.944 298.619C246.491 298.055 245.885 297.641 245.201 297.429C244.517 297.217 243.786 297.216 243.101 297.426C242.416 297.636 241.808 298.049 241.353 298.611C240.899 299.173 240.618 299.859 240.548 300.583C240.477 301.307 240.619 302.036 240.955 302.678C241.292 303.319 241.809 303.845 242.439 304.188C243.07 304.53 243.787 304.675 244.498 304.603C245.451 304.508 246.327 304.032 246.935 303.28C247.543 302.528 247.833 301.562 247.742 300.593V300.593Z" fill="white" stroke="#263238" stroke-linecap="round" stroke-linejoin="round"/>
<path d="M355.587 190.212L354.018 190.996L359.9 204.319L361.456 203.494L355.587 190.212Z" fill="white" stroke="#263238" stroke-linecap="round" stroke-linejoin="round"/>
<path d="M366.156 184.876L364.6 185.66L370.374 198.739L371.929 197.914L366.156 184.876Z" fill="white" stroke="#263238" stroke-linecap="round" stroke-linejoin="round"/>
<path d="M341.867 197.128L340.298 197.912L346.341 211.545L347.883 210.721L341.867 197.128Z" fill="white" stroke="#263238" stroke-linecap="round" stroke-linejoin="round"/>
<path d="M376.744 179.541L375.188 180.325L380.854 193.174L382.396 192.35L376.744 179.541Z" fill="white" stroke="#263238" stroke-linecap="round" stroke-linejoin="round"/>
<path d="M328.927 203.647L327.358 204.43L333.537 218.361L335.092 217.537L328.927 203.647Z" fill="white" stroke="#263238" stroke-linecap="round" stroke-linejoin="round"/>
<path d="M319.191 225.987L320.747 225.163L314.419 210.962L312.85 211.745L319.191 225.987Z" fill="white" stroke="#263238" stroke-linecap="round" stroke-linejoin="round"/>
<path d="M387.326 174.207L385.757 174.99L391.314 187.596L392.869 186.772L387.326 174.207Z" fill="white" stroke="#263238" stroke-linecap="round" stroke-linejoin="round"/>
<path d="M440.248 147.531L438.678 148.315L444.176 159.877L445.718 159.052L440.248 147.531Z" fill="white" stroke="#263238" stroke-linecap="round" stroke-linejoin="round"/>
<path d="M419.08 158.201L417.511 158.985L423.238 171.033L424.78 170.208L419.08 158.201Z" fill="white" stroke="#263238" stroke-linecap="round" stroke-linejoin="round"/>
<path d="M429.665 152.866L428.096 153.65L433.702 165.455L435.258 164.63L429.665 152.866Z" fill="white" stroke="#263238" stroke-linecap="round" stroke-linejoin="round"/>
<path d="M397.912 168.872L396.343 169.656L402.299 182.177L403.842 181.353L397.912 168.872Z" fill="white" stroke="#263238" stroke-linecap="round" stroke-linejoin="round"/>
<path d="M408.509 163.536L406.94 164.333L412.762 176.598L414.318 175.773L408.509 163.536Z" fill="white" stroke="#263238" stroke-linecap="round" stroke-linejoin="round"/>
<path d="M452.394 142.429L227.387 258.093" stroke="white" stroke-width="0.5" stroke-linecap="round" stroke-linejoin="round"/>
<path d="M453.671 144.347L228.665 260.011" stroke="white" stroke-width="0.5" stroke-linecap="round" stroke-linejoin="round"/>
<path d="M454.937 146.279L229.944 261.943" stroke="white" stroke-width="0.5" stroke-linecap="round" stroke-linejoin="round"/>
<path d="M456.218 148.196L231.225 263.861" stroke="white" stroke-width="0.5" stroke-linecap="round" stroke-linejoin="round"/>
<path d="M457.498 150.114L232.505 265.778" stroke="white" stroke-width="0.5" stroke-linecap="round" stroke-linejoin="round"/>
<path d="M458.771 152.045L233.778 267.709" stroke="white" stroke-width="0.5" stroke-linecap="round" stroke-linejoin="round"/>
<path d="M451.391 141.948L454.987 127.923C454.987 127.923 466.646 130.463 480.571 117.4C487.237 124.338 491.56 133.255 492.914 142.86C492.914 142.86 473.11 147.552 469.264 157.834L456.647 153.28L451.391 141.948Z" fill="#263238" stroke="#263238" stroke-linecap="round" stroke-linejoin="round"/>
<path d="M464.385 135.864C464.338 135.453 464.171 135.066 463.907 134.751C463.643 134.437 463.293 134.21 462.901 134.098C462.51 133.986 462.094 133.995 461.708 134.124C461.321 134.253 460.981 134.495 460.729 134.821C460.478 135.147 460.328 135.541 460.298 135.954C460.267 136.366 460.358 136.779 460.558 137.139C460.758 137.499 461.059 137.79 461.422 137.976C461.786 138.162 462.195 138.234 462.599 138.182C463.137 138.114 463.627 137.832 463.962 137.398C464.297 136.963 464.449 136.412 464.385 135.864Z" fill="white" stroke="#263238" stroke-linecap="round" stroke-linejoin="round"/>
<path d="M471.009 132.537C470.961 132.127 470.796 131.74 470.532 131.425C470.269 131.111 469.92 130.883 469.529 130.77C469.138 130.658 468.723 130.666 468.336 130.793C467.95 130.921 467.609 131.162 467.357 131.487C467.105 131.811 466.954 132.204 466.921 132.616C466.889 133.028 466.978 133.44 467.176 133.801C467.374 134.162 467.673 134.454 468.035 134.642C468.397 134.83 468.805 134.904 469.209 134.855C469.75 134.79 470.243 134.51 470.58 134.075C470.918 133.64 471.072 133.087 471.009 132.537V132.537Z" fill="white" stroke="#263238" stroke-linecap="round" stroke-linejoin="round"/>
<path d="M477.628 129.195C477.581 128.784 477.415 128.397 477.151 128.083C476.888 127.768 476.539 127.541 476.148 127.428C475.757 127.316 475.342 127.324 474.955 127.451C474.569 127.579 474.228 127.82 473.976 128.144C473.724 128.469 473.573 128.862 473.54 129.274C473.508 129.686 473.597 130.098 473.795 130.459C473.993 130.819 474.292 131.112 474.654 131.3C475.016 131.487 475.424 131.562 475.828 131.513C476.369 131.448 476.862 131.167 477.199 130.733C477.537 130.298 477.691 129.745 477.628 129.195V129.195Z" fill="white" stroke="#263238" stroke-linecap="round" stroke-linejoin="round"/>
<path d="M469.721 147.088C469.674 146.677 469.507 146.29 469.243 145.975C468.979 145.661 468.629 145.433 468.237 145.321C467.846 145.21 467.43 145.219 467.044 145.348C466.657 145.476 466.316 145.719 466.065 146.045C465.814 146.37 465.664 146.765 465.634 147.177C465.603 147.59 465.694 148.002 465.894 148.362C466.094 148.722 466.395 149.014 466.758 149.2C467.122 149.385 467.531 149.457 467.935 149.406C468.473 149.338 468.963 149.056 469.298 148.621C469.632 148.187 469.785 147.636 469.721 147.088V147.088Z" fill="white" stroke="#263238" stroke-linecap="round" stroke-linejoin="round"/>
<path d="M476.343 143.759C476.296 143.349 476.13 142.962 475.866 142.647C475.603 142.333 475.254 142.105 474.863 141.993C474.472 141.88 474.057 141.888 473.67 142.016C473.284 142.143 472.943 142.384 472.691 142.709C472.439 143.033 472.288 143.426 472.255 143.838C472.223 144.25 472.312 144.662 472.51 145.023C472.708 145.384 473.007 145.676 473.369 145.864C473.731 146.052 474.139 146.126 474.543 146.077C475.083 146.012 475.577 145.732 475.914 145.297C476.252 144.862 476.406 144.309 476.343 143.759Z" fill="white" stroke="#263238" stroke-linecap="round" stroke-linejoin="round"/>
<path d="M482.964 140.486C482.917 140.076 482.751 139.689 482.487 139.374C482.224 139.06 481.875 138.832 481.484 138.72C481.093 138.607 480.678 138.615 480.291 138.743C479.905 138.87 479.564 139.111 479.312 139.436C479.06 139.76 478.909 140.153 478.876 140.565C478.844 140.977 478.933 141.389 479.131 141.75C479.329 142.111 479.628 142.403 479.99 142.591C480.352 142.779 480.76 142.853 481.164 142.805C481.705 142.74 482.198 142.459 482.535 142.024C482.873 141.589 483.027 141.036 482.964 140.486V140.486Z" fill="white" stroke="#263238" stroke-linecap="round" stroke-linejoin="round"/>
<path d="M421.272 172.105C421.272 172.105 413.317 159.95 413.429 158.592C413.942 152.946 422.903 166.016 424.956 168.092C427.009 170.167 426.624 172.666 424.585 175.175C422.546 177.685 409.068 178.604 409.068 178.604L421.272 172.105Z" fill="white" stroke="#263238" stroke-linecap="round" stroke-linejoin="round"/>
<path d="M426.305 168.571C426.305 168.571 419.412 157.86 421.507 155.77C424.49 152.806 425.051 157.428 427.195 161.375C429.34 165.321 431.48 168.658 430.194 169.86C427.833 172.06 426.305 168.571 426.305 168.571Z" fill="white" stroke="#263238" stroke-linecap="round" stroke-linejoin="round"/>
<path d="M430.527 165.789C430.527 165.789 424.28 153.893 425.729 152.988C427.177 152.083 429.273 154.646 431.417 158.579C433.561 162.512 435.715 165.862 434.416 167.078C432.055 169.319 430.527 165.789 430.527 165.789Z" fill="white" stroke="#263238" stroke-linecap="round" stroke-linejoin="round"/>
<path d="M435.954 167.42C435.954 167.42 430.334 155.561 431.169 154.633C433.182 152.368 434.713 156.278 436.857 160.224C439.002 164.171 441.142 167.507 439.856 168.71C437.482 170.937 435.954 167.42 435.954 167.42Z" fill="white" stroke="#263238" stroke-linecap="round" stroke-linejoin="round"/>
<path d="M215.964 102.261C215.964 102.261 204.231 109.557 192.814 118.384C181.397 127.211 141.856 227.471 143.932 231.215C146.009 234.959 250.529 247.993 257.498 249.194C264.467 250.395 268.185 252.039 272.658 250.747C277.132 249.455 282.453 242.772 282.453 242.772C282.453 242.772 287.783 241.908 288.565 238.986C289.348 236.064 286.907 236.081 284.033 234.839C281.158 233.596 279.092 229.446 277.026 227.398C274.96 225.35 265.159 227.885 261.475 229.579C257.791 231.272 251.673 234.23 248.395 234.673C245.117 235.115 226.271 232.733 209.825 223.674C193.379 214.615 188.414 211.746 185.988 209.673C183.561 207.6 222.459 144.433 222.459 144.433" fill="#0084FF"/>
<path d="M215.964 102.261C215.964 102.261 204.231 109.557 192.814 118.384C181.397 127.211 141.856 227.471 143.932 231.215C146.009 234.959 250.529 247.993 257.498 249.194C264.467 250.395 268.185 252.039 272.658 250.747C277.132 249.455 282.453 242.772 282.453 242.772C282.453 242.772 287.783 241.908 288.565 238.986C289.348 236.064 286.907 236.081 284.033 234.839C281.158 233.596 279.092 229.446 277.026 227.398C274.96 225.35 265.159 227.885 261.475 229.579C257.791 231.272 251.673 234.23 248.395 234.673C245.117 235.115 226.271 232.733 209.825 223.674C193.379 214.615 188.414 211.746 185.988 209.673C183.561 207.6 222.459 144.433 222.459 144.433" stroke="#263238" stroke-linecap="round" stroke-linejoin="round"/>
<path d="M288.566 238.986C289.376 236.064 286.908 236.081 284.033 234.839C281.159 233.597 279.093 229.446 277.027 227.398C274.961 225.35 265.16 227.885 261.476 229.579C257.792 231.272 251.674 234.23 248.396 234.673C245.118 235.116 226.272 232.734 209.826 223.675C193.38 214.616 188.415 211.746 185.989 209.673C185.184 209.001 188.796 201.827 194.007 192.472C182.548 190.881 171.422 187.395 161.07 182.154C151.028 206.79 142.963 229.472 143.933 231.215C145.996 234.946 250.53 247.994 257.499 249.195C264.468 250.395 268.186 252.039 272.659 250.747C277.133 249.455 282.454 242.772 282.454 242.772C282.454 242.772 287.77 241.908 288.566 238.986Z" fill="white" stroke="#263238" stroke-linecap="round" stroke-linejoin="round"/>
<path d="M185.993 209.673C185.993 209.673 172.405 205.628 163.214 216.352" stroke="#263238" stroke-linecap="round" stroke-linejoin="round"/>
<path d="M159.103 187.025C170.149 191.942 185.699 194.116 192.666 194.937C194.896 190.852 197.496 186.303 200.228 181.605C188.128 180.354 176.279 177.279 165.07 172.482C163.033 177.38 161.021 182.264 159.103 187.025Z" fill="#263238" stroke="#263238" stroke-linecap="round" stroke-linejoin="round"/>
<path d="M461.231 566.731L501.369 550.113L552.558 561.542L510.694 579.365L461.231 566.731Z" fill="white"/>
<path d="M509.063 574.831C511.523 573.553 514.077 572.369 516.63 571.199C519.184 570.028 521.778 568.885 524.372 567.768C526.966 566.652 529.613 565.562 532.288 564.527L536.279 562.967C537.61 562.47 538.941 561.959 540.365 561.488C539.142 562.134 537.865 562.726 536.615 563.345L532.798 565.12C530.258 566.304 527.651 567.421 525.043 568.551C522.436 569.681 519.815 570.743 517.141 571.792C514.466 572.841 511.818 573.877 509.063 574.831Z" fill="#DBDBDB"/>
<path d="M515.666 568.139C518.577 566.518 521.573 565.062 524.642 563.778C527.803 562.413 531.033 561.219 534.317 560.199C531.409 561.826 528.412 563.282 525.341 564.56C522.18 565.927 518.951 567.122 515.666 568.139V568.139Z" fill="#DBDBDB"/>
<path d="M496.925 572.255C499.398 570.976 501.938 569.792 504.492 568.622C507.045 567.452 509.639 566.308 512.233 565.192C514.827 564.075 517.475 562.986 520.149 561.95L524.141 560.39C525.471 559.893 526.802 559.382 528.226 558.911C527.003 559.557 525.726 560.149 524.476 560.768L520.659 562.544C518.119 563.728 515.512 564.844 512.905 565.974C510.297 567.104 507.676 568.18 505.002 569.215C502.327 570.251 499.68 571.3 496.925 572.255Z" fill="#DBDBDB"/>
<path d="M495.359 569.05C499.56 566.838 503.963 564.922 508.419 562.952C512.875 560.982 517.439 559.215 522.177 557.623C517.989 559.835 513.573 561.751 509.117 563.721C504.661 565.691 500.097 567.444 495.359 569.05Z" fill="#DBDBDB"/>
<path d="M500.576 562.951C502.963 561.546 505.442 560.31 507.996 559.252C510.639 558.106 513.35 557.131 516.114 556.335C513.727 557.74 511.248 558.976 508.694 560.034C506.052 561.18 503.34 562.155 500.576 562.951V562.951Z" fill="#DBDBDB"/>
<path d="M328.54 560.155L392.012 542.646L453.5 567.665L390.351 585.769L328.54 560.155Z" fill="white"/>
<path d="M389.439 580.593C393.565 579.208 397.759 577.905 401.952 576.628C406.145 575.352 410.366 574.102 414.6 572.88C418.833 571.657 423.094 570.475 427.368 569.334L433.8 567.636C435.957 567.092 438.101 566.521 440.272 566.018C438.222 566.724 436.119 567.403 434.043 568.041L427.759 569.983C423.566 571.273 419.345 572.509 415.112 573.731C410.878 574.953 406.617 576.135 402.343 577.277C398.068 578.418 393.767 579.559 389.439 580.593Z" fill="#DBDBDB"/>
<path d="M405.722 571.434C410.246 569.749 414.919 568.32 419.632 566.945C424.345 565.57 429.125 564.33 434.054 563.306C429.529 564.992 424.857 566.421 420.144 567.796C415.431 569.171 410.597 570.411 405.722 571.434Z" fill="#DBDBDB"/>
<path d="M383.126 573.391C386.733 572.146 390.407 571.009 394.081 569.872C397.755 568.734 401.456 567.651 405.171 566.568C408.885 565.485 412.614 564.469 416.369 563.481L422.015 561.991C423.919 561.53 425.797 561.043 427.715 560.596C425.918 561.232 424.081 561.8 422.257 562.41L416.759 564.129C413.085 565.266 409.384 566.35 405.669 567.419C401.955 568.489 398.227 569.532 394.458 570.52C390.69 571.509 386.948 572.497 383.126 573.391Z" fill="#DBDBDB"/>
<path d="M380.146 569.736C383.486 568.573 386.801 567.506 390.276 566.452C393.75 565.397 397.105 564.398 400.54 563.398C403.975 562.398 407.423 561.439 410.912 560.533L416.145 559.141C417.917 558.722 419.661 558.263 421.472 557.871C419.809 558.465 418.118 558.992 416.441 559.56L411.343 561.154C407.948 562.222 404.513 563.222 401.078 564.208C397.643 565.195 394.195 566.168 390.706 567.073C387.217 567.978 383.689 568.925 380.146 569.736Z" fill="#DBDBDB"/>
<path d="M364.369 569.774C368.508 568.389 372.688 567.086 376.895 565.809C381.102 564.533 385.309 563.283 389.543 562.061C393.777 560.838 398.024 559.643 402.312 558.515L408.743 556.803C410.9 556.273 413.044 555.702 415.215 555.186C413.152 555.891 411.062 556.57 408.986 557.222L402.702 559.164C398.509 560.454 394.275 561.676 390.055 562.898C385.834 564.121 381.56 565.316 377.286 566.458C373.011 567.599 368.644 568.727 364.369 569.774Z" fill="#DBDBDB"/>
<path d="M363.756 565.424C367.416 564.178 371.116 563.013 374.844 561.862C378.571 560.711 382.312 559.614 386.054 558.531C389.795 557.447 393.589 556.391 397.398 555.388L403.11 553.898C405.028 553.424 406.932 552.922 408.864 552.502C407.054 553.139 405.19 553.707 403.353 554.317L397.789 556.064C394.074 557.215 390.32 558.298 386.566 559.395C382.811 560.492 379.03 561.522 375.235 562.524C371.44 563.527 367.618 564.516 363.756 565.424Z" fill="#DBDBDB"/>
<path d="M351.744 564.365C355.87 562.98 360.063 561.677 364.257 560.387C368.45 559.097 372.684 557.875 376.904 556.652C381.125 555.43 385.399 554.234 389.673 553.093L396.105 551.394C398.262 550.851 400.406 550.294 402.59 549.777C400.527 550.483 398.437 551.162 396.361 551.813L390.064 553.755C385.884 555.045 381.65 556.267 377.416 557.49C373.182 558.712 368.935 559.908 364.647 561.035C360.36 562.163 356.085 563.318 351.744 564.365Z" fill="#DBDBDB"/>
<path d="M366.258 555.72C371.062 553.952 376.027 552.439 381.033 550.981C386.039 549.523 391.099 548.2 396.307 547.106C391.503 548.875 386.538 550.388 381.532 551.832C376.526 553.277 371.466 554.586 366.258 555.72Z" fill="#DBDBDB"/>
</svg>
