<svg width="115" height="32" viewBox="0 0 115 32" fill="none" xmlns="http://www.w3.org/2000/svg">
<path d="M30.367 6.8V25H28.521V10.44L21.371 22.686H20.461L13.311 10.518V25H11.465V6.8H13.051L20.955 20.294L28.781 6.8H30.367ZM40.691 11.22C42.4763 11.22 43.8457 11.6707 44.799 12.572C45.7523 13.456 46.229 14.7733 46.229 16.524V25H44.461V22.868C44.045 23.5787 43.4297 24.1333 42.615 24.532C41.8177 24.9307 40.8643 25.13 39.755 25.13C38.2297 25.13 37.0163 24.766 36.115 24.038C35.2137 23.31 34.763 22.348 34.763 21.152C34.763 19.9907 35.179 19.0547 36.011 18.344C36.8603 17.6333 38.2037 17.278 40.041 17.278H44.383V16.446C44.383 15.2673 44.0537 14.3747 43.395 13.768C42.7363 13.144 41.7743 12.832 40.509 12.832C39.6423 12.832 38.8103 12.9793 38.013 13.274C37.2157 13.5513 36.531 13.9413 35.959 14.444L35.127 13.066C35.8203 12.4767 36.6523 12.026 37.623 11.714C38.5937 11.3847 39.6163 11.22 40.691 11.22ZM40.041 23.674C41.081 23.674 41.9737 23.44 42.719 22.972C43.4643 22.4867 44.019 21.7933 44.383 20.892V18.656H40.093C37.753 18.656 36.583 19.4707 36.583 21.1C36.583 21.8973 36.8863 22.53 37.493 22.998C38.0997 23.4487 38.949 23.674 40.041 23.674ZM54.9089 25.13C53.7996 25.13 52.7336 24.974 51.7109 24.662C50.7056 24.3327 49.9169 23.9253 49.3449 23.44L50.1769 21.984C50.7489 22.4347 51.4683 22.8073 52.3349 23.102C53.2016 23.3793 54.1029 23.518 55.0389 23.518C56.2869 23.518 57.2056 23.3273 57.7949 22.946C58.4016 22.5473 58.7049 21.9927 58.7049 21.282C58.7049 20.7793 58.5403 20.3893 58.2109 20.112C57.8816 19.8173 57.4656 19.6007 56.9629 19.462C56.4603 19.306 55.7929 19.1587 54.9609 19.02C53.8516 18.812 52.9589 18.604 52.2829 18.396C51.6069 18.1707 51.0263 17.798 50.5409 17.278C50.0729 16.758 49.8389 16.0387 49.8389 15.12C49.8389 13.976 50.3156 13.04 51.2689 12.312C52.2223 11.584 53.5483 11.22 55.2469 11.22C56.1309 11.22 57.0149 11.3413 57.8989 11.584C58.7829 11.8093 59.5109 12.1127 60.0829 12.494L59.2769 13.976C58.1503 13.196 56.8069 12.806 55.2469 12.806C54.0683 12.806 53.1756 13.014 52.5689 13.43C51.9796 13.846 51.6849 14.392 51.6849 15.068C51.6849 15.588 51.8496 16.004 52.1789 16.316C52.5256 16.628 52.9503 16.862 53.4529 17.018C53.9556 17.1567 54.6489 17.304 55.5329 17.46C56.6249 17.668 57.5003 17.876 58.1589 18.084C58.8176 18.292 59.3809 18.6473 59.8489 19.15C60.3169 19.6527 60.5509 20.346 60.5509 21.23C60.5509 22.426 60.0483 23.3793 59.0429 24.09C58.0549 24.7833 56.6769 25.13 54.9089 25.13ZM76.2876 11.324V25H74.5196V22.504C74.0343 23.336 73.367 23.986 72.5176 24.454C71.6683 24.9047 70.6976 25.13 69.6056 25.13C67.8203 25.13 66.4076 24.636 65.3676 23.648C64.345 22.6427 63.8336 21.178 63.8336 19.254V11.324H65.6796V19.072C65.6796 20.5107 66.035 21.6027 66.7456 22.348C67.4563 23.0933 68.4703 23.466 69.7876 23.466C71.2263 23.466 72.3616 23.0327 73.1936 22.166C74.0256 21.282 74.4416 20.06 74.4416 18.5V11.324H76.2876ZM86.5278 18.136L83.3038 21.1V25H81.4578V5.708H83.3038V18.786L91.4678 11.324H93.7558L87.9058 16.914L94.3018 25H92.0398L86.5278 18.136Z" fill="black"/>
<path d="M103 9L113 17.5L103 26" stroke="#0084FF" stroke-width="2" stroke-linecap="round"/>
</svg>
