<svg width="422" height="37" viewBox="0 0 422 37" fill="none" xmlns="http://www.w3.org/2000/svg">
<path d="M13.3532 36.288C10.8572 36.288 8.45719 35.888 6.15319 35.088C3.88119 34.288 2.12119 33.232 0.873188 31.92L2.26519 29.184C3.48119 30.4 5.09719 31.392 7.11319 32.16C9.12919 32.896 11.2092 33.264 13.3532 33.264C16.3612 33.264 18.6172 32.72 20.1212 31.632C21.6252 30.512 22.3772 29.072 22.3772 27.312C22.3772 25.968 21.9612 24.896 21.1292 24.096C20.3292 23.296 19.3372 22.688 18.1532 22.272C16.9692 21.824 15.3212 21.344 13.2092 20.832C10.6812 20.192 8.66519 19.584 7.16119 19.008C5.65719 18.4 4.36119 17.488 3.27319 16.272C2.21719 15.056 1.68919 13.408 1.68919 11.328C1.68919 9.632 2.13719 8.096 3.03319 6.72C3.92919 5.312 5.30519 4.192 7.16119 3.36C9.01719 2.528 11.3212 2.112 14.0732 2.112C15.9932 2.112 17.8652 2.384 19.6892 2.928C21.5452 3.44 23.1452 4.16 24.4892 5.088L23.2892 7.92C21.8812 6.992 20.3772 6.304 18.7772 5.856C17.1772 5.376 15.6092 5.136 14.0732 5.136C11.1292 5.136 8.90519 5.712 7.40119 6.864C5.92919 7.984 5.19319 9.44 5.19319 11.232C5.19319 12.576 5.59319 13.664 6.39319 14.496C7.22519 15.296 8.24919 15.92 9.46519 16.368C10.7132 16.784 12.3772 17.248 14.4572 17.76C16.9212 18.368 18.9052 18.976 20.4092 19.584C21.9452 20.16 23.2412 21.056 24.2972 22.272C25.3532 23.456 25.8812 25.072 25.8812 27.12C25.8812 28.816 25.4172 30.368 24.4892 31.776C23.5932 33.152 22.2012 34.256 20.3132 35.088C18.4252 35.888 16.1052 36.288 13.3532 36.288ZM46.1964 2.4C50.4844 2.4 53.8444 3.424 56.2764 5.472C58.7084 7.52 59.9244 10.336 59.9244 13.92C59.9244 17.504 58.7084 20.32 56.2764 22.368C53.8444 24.384 50.4844 25.392 46.1964 25.392H37.1724V36H33.6204V2.4H46.1964ZM46.1004 22.272C49.4284 22.272 51.9724 21.552 53.7324 20.112C55.4924 18.64 56.3724 16.576 56.3724 13.92C56.3724 11.2 55.4924 9.12 53.7324 7.68C51.9724 6.208 49.4284 5.472 46.1004 5.472H37.1724V22.272H46.1004ZM78.0208 20.208L71.1568 27.168V36H67.6048V2.4H71.1568V22.704L90.8848 2.4H94.9648L80.4208 17.616L95.9728 36H91.7488L78.0208 20.208ZM137.956 19.2H141.364V32.016C139.796 33.392 137.94 34.448 135.796 35.184C133.652 35.92 131.396 36.288 129.028 36.288C125.668 36.288 122.644 35.552 119.956 34.08C117.268 32.608 115.156 30.576 113.62 27.984C112.084 25.36 111.316 22.432 111.316 19.2C111.316 15.968 112.084 13.056 113.62 10.464C115.156 7.84 117.268 5.792 119.956 4.32C122.644 2.848 125.684 2.112 129.076 2.112C131.636 2.112 133.988 2.528 136.132 3.36C138.276 4.16 140.084 5.36 141.556 6.96L139.348 9.216C136.692 6.592 133.316 5.28 129.22 5.28C126.5 5.28 124.036 5.888 121.828 7.104C119.652 8.288 117.94 9.952 116.692 12.096C115.444 14.208 114.82 16.576 114.82 19.2C114.82 21.824 115.444 24.192 116.692 26.304C117.94 28.416 119.652 30.08 121.828 31.296C124.004 32.512 126.452 33.12 129.172 33.12C132.628 33.12 135.556 32.256 137.956 30.528V19.2ZM150.697 10.752H154.105V36H150.697V10.752ZM152.425 5.232C151.721 5.232 151.129 4.992 150.649 4.512C150.169 4.032 149.929 3.456 149.929 2.784C149.929 2.144 150.169 1.584 150.649 1.104C151.129 0.623998 151.721 0.383998 152.425 0.383998C153.129 0.383998 153.721 0.623998 154.201 1.104C154.681 1.552 154.921 2.096 154.921 2.736C154.921 3.44 154.681 4.032 154.201 4.512C153.721 4.992 153.129 5.232 152.425 5.232ZM176.884 34.464C176.244 35.04 175.444 35.488 174.484 35.808C173.556 36.096 172.58 36.24 171.556 36.24C169.188 36.24 167.364 35.6 166.084 34.32C164.804 33.04 164.164 31.232 164.164 28.896V13.632H159.652V10.752H164.164V5.232H167.572V10.752H175.252V13.632H167.572V28.704C167.572 30.208 167.94 31.36 168.676 32.16C169.444 32.928 170.532 33.312 171.94 33.312C172.644 33.312 173.316 33.2 173.956 32.976C174.628 32.752 175.204 32.432 175.684 32.016L176.884 34.464ZM191.92 10.56C195.216 10.56 197.744 11.392 199.504 13.056C201.264 14.688 202.144 17.12 202.144 20.352V36H198.88V32.064C198.112 33.376 196.976 34.4 195.472 35.136C194 35.872 192.24 36.24 190.192 36.24C187.376 36.24 185.136 35.568 183.472 34.224C181.808 32.88 180.976 31.104 180.976 28.896C180.976 26.752 181.744 25.024 183.28 23.712C184.848 22.4 187.328 21.744 190.72 21.744H198.736V20.208C198.736 18.032 198.128 16.384 196.912 15.264C195.696 14.112 193.92 13.536 191.584 13.536C189.984 13.536 188.448 13.808 186.976 14.352C185.504 14.864 184.24 15.584 183.184 16.512L181.648 13.968C182.928 12.88 184.464 12.048 186.256 11.472C188.048 10.864 189.936 10.56 191.92 10.56ZM190.72 33.552C192.64 33.552 194.288 33.12 195.664 32.256C197.04 31.36 198.064 30.08 198.736 28.416V24.288H190.816C186.496 24.288 184.336 25.792 184.336 28.8C184.336 30.272 184.896 31.44 186.016 32.304C187.136 33.136 188.704 33.552 190.72 33.552ZM214.664 15.696C215.464 14 216.648 12.72 218.216 11.856C219.816 10.992 221.784 10.56 224.12 10.56V13.872L223.304 13.824C220.648 13.824 218.568 14.64 217.064 16.272C215.56 17.904 214.808 20.192 214.808 23.136V36H211.4V10.752H214.664V15.696ZM267.709 32.928V36H243.949V2.4H266.989V5.472H247.501V17.424H264.877V20.448H247.501V32.928H267.709ZM275.338 0.383998H278.746V36H275.338V0.383998ZM310.213 24.432H289.093C289.285 27.056 290.293 29.184 292.117 30.816C293.941 32.416 296.245 33.216 299.029 33.216C300.597 33.216 302.037 32.944 303.349 32.4C304.661 31.824 305.797 30.992 306.757 29.904L308.677 32.112C307.557 33.456 306.149 34.48 304.453 35.184C302.789 35.888 300.949 36.24 298.933 36.24C296.341 36.24 294.037 35.696 292.021 34.608C290.037 33.488 288.485 31.952 287.365 30C286.245 28.048 285.685 25.84 285.685 23.376C285.685 20.912 286.213 18.704 287.269 16.752C288.357 14.8 289.829 13.28 291.685 12.192C293.573 11.104 295.685 10.56 298.021 10.56C300.357 10.56 302.453 11.104 304.309 12.192C306.165 13.28 307.621 14.8 308.677 16.752C309.733 18.672 310.261 20.88 310.261 23.376L310.213 24.432ZM298.021 13.488C295.589 13.488 293.541 14.272 291.877 15.84C290.245 17.376 289.317 19.392 289.093 21.888H306.997C306.773 19.392 305.829 17.376 304.165 15.84C302.533 14.272 300.485 13.488 298.021 13.488ZM326.557 23.328L320.605 28.8V36H317.197V0.383998H320.605V24.528L335.677 10.752H339.901L329.101 21.072L340.909 36H336.733L326.557 23.328ZM359.321 34.464C358.681 35.04 357.881 35.488 356.921 35.808C355.993 36.096 355.017 36.24 353.993 36.24C351.625 36.24 349.801 35.6 348.521 34.32C347.241 33.04 346.601 31.232 346.601 28.896V13.632H342.089V10.752H346.601V5.232H350.009V10.752H357.689V13.632H350.009V28.704C350.009 30.208 350.377 31.36 351.113 32.16C351.881 32.928 352.969 33.312 354.377 33.312C355.081 33.312 355.753 33.2 356.393 32.976C357.065 32.752 357.641 32.432 358.121 32.016L359.321 34.464ZM368.789 15.696C369.589 14 370.773 12.72 372.341 11.856C373.941 10.992 375.909 10.56 378.245 10.56V13.872L377.429 13.824C374.773 13.824 372.693 14.64 371.189 16.272C369.685 17.904 368.933 20.192 368.933 23.136V36H365.525V10.752H368.789V15.696ZM384.416 10.752H387.824V36H384.416V10.752ZM386.144 5.232C385.44 5.232 384.848 4.992 384.368 4.512C383.888 4.032 383.648 3.456 383.648 2.784C383.648 2.144 383.888 1.584 384.368 1.104C384.848 0.623998 385.44 0.383998 386.144 0.383998C386.848 0.383998 387.44 0.623998 387.92 1.104C388.4 1.552 388.64 2.096 388.64 2.736C388.64 3.44 388.4 4.032 387.92 4.512C387.44 4.992 386.848 5.232 386.144 5.232ZM406.667 23.328L400.715 28.8V36H397.307V0.383998H400.715V24.528L415.787 10.752H420.011L409.211 21.072L421.019 36H416.843L406.667 23.328Z" fill="black"/>
</svg>
